<svg xmlns="http://www.w3.org/2000/svg" width="121.437" height="34.969" viewBox="0 0 121.437 34.969">
  <defs>
    <style>
      .cls-1 {
        fill: #fff;
        fill-rule: evenodd;
      }
    </style>
  </defs>
  <path class="cls-1" d="M851.444,55.571h2.172v9.537h2.749l-0.2,1.924h-4.719V55.571Zm6.428,0h2.172v9.537h2.749l-0.2,1.924h-4.719V55.571Zm8.7,8.728L866.3,67.032H864.08l1.595-11.461h3.24l1.646,11.461h-2.256L867.983,64.3h-1.409Zm3.818-11.168-2.223,1.717h-1.917l1.6-1.717h2.545Zm-2.6,9.226c-0.153-1.46-.373-3.694-0.493-4.794h-0.084c-0.035.791-.305,3.368-0.458,4.794H867.8Zm10.261,1.015c0-1.77.018-4.279,0.051-5.687H878.04c-0.237,2.284-.729,6.923-1.036,9.346h-1.849c-0.255-2.508-.747-7.233-0.984-9.381H874.1c0.034,1.34.086,3.832,0.086,5.807v3.574h-1.97V55.571h3.122c0.29,2.182.629,5.034,0.765,6.6h0.034c0.186-1.666.559-4.072,0.9-6.6h3.122V67.032h-2.1V63.373Zm6.17,0.927-0.272,2.732h-2.223l1.6-11.461h3.241l1.646,11.461h-2.256L885.635,64.3h-1.408Zm1.222-1.942c-0.154-1.46-.373-3.694-0.494-4.794h-0.083c-0.035.791-.3,3.368-0.459,4.794h1.036Zm4.424,4.674V55.571h2.411l1.17,5.034c0.171,0.688.322,1.546,0.408,2.062h0.05c-0.118-1.529-.186-3.608-0.186-5.223V55.571h2.019V67.032H893.3l-1.222-5.7c-0.118-.566-0.237-1.322-0.322-1.684h-0.051c0.084,1.34.152,3.626,0.152,5.429v1.959h-1.986Zm13.774-8.4v5.327c0,2.266-1.051,3.246-3.037,3.246-1.884,0-2.852-1-2.852-3.23V58.578c0-2.217,1.2-3.179,2.953-3.179S903.647,56.344,903.647,58.63Zm-3.682-.24v5.859c0,0.7.237,1.082,0.729,1.082,0.509,0,.73-0.343.73-1.1V58.372c0-.722-0.186-1.082-0.73-1.082C900.22,57.29,899.965,57.616,899.965,58.39Zm7.512,5.1V64.3c0,0.74.186,1.1,0.678,1.1,0.509,0,.629-0.515.629-1.064,0-1.084-.2-1.393-1.358-2.372-1.29-1.1-1.935-1.753-1.935-3.437,0-1.631.527-3.143,2.682-3.143,2.274,0,2.613,1.581,2.613,2.886v0.653h-2.054V58.234c0-.687-0.118-1.031-0.542-1.031-0.408,0-.544.344-0.544,1,0,0.687.136,1.031,1.07,1.769,1.663,1.324,2.256,2.079,2.256,3.952,0,1.8-.61,3.281-2.85,3.281-2.155,0-2.784-1.322-2.784-3.024V63.493h2.139Zm10.125,0V64.3c0,0.74.186,1.1,0.678,1.1,0.509,0,.63-0.515.63-1.064,0-1.084-.2-1.393-1.359-2.372-1.29-1.1-1.935-1.753-1.935-3.437,0-1.631.527-3.143,2.682-3.143,2.275,0,2.613,1.581,2.613,2.886v0.653h-2.054V58.234c0-.687-0.118-1.031-0.542-1.031-0.408,0-.544.344-0.544,1,0,0.687.136,1.031,1.071,1.769,1.663,1.324,2.255,2.079,2.255,3.952,0,1.8-.61,3.281-2.85,3.281-2.155,0-2.784-1.322-2.784-3.024V63.493H917.6Zm7.477-7.922V67.032h-2.172V55.571h2.172ZM927.3,67.032V55.571h2.411l1.17,5.034c0.17,0.688.322,1.546,0.407,2.062h0.051c-0.119-1.529-.187-3.608-0.187-5.223V55.571h2.019V67.032h-2.442l-1.222-5.7c-0.119-.566-0.237-1.322-0.323-1.684h-0.05c0.084,1.34.152,3.626,0.152,5.429v1.959H927.3Zm16.521-3.746V63.9c0,1.444-.27,3.3-2.868,3.3-1.917,0-2.749-1.031-2.749-3.144V58.441c0-1.993.985-3.041,2.8-3.041,2.393,0,2.784,1.58,2.784,3.093v0.722H941.6v-0.98c0-.636-0.136-0.962-0.594-0.962-0.441,0-.593.309-0.593,0.962V64.3c0,0.6.1,1.031,0.593,1.031,0.476,0,.612-0.36.612-1.082V63.286h2.205Zm7.648-4.656v5.327c0,2.266-1.051,3.246-3.037,3.246-1.884,0-2.852-1-2.852-3.23V58.578c0-2.217,1.2-3.179,2.953-3.179S951.469,56.344,951.469,58.63Zm-3.682-.24v5.859c0,0.7.237,1.082,0.729,1.082,0.509,0,.73-0.343.73-1.1V58.372c0-.722-0.186-1.082-0.73-1.082C948.042,57.29,947.787,57.616,947.787,58.39Zm7.514,5.1V64.3c0,0.74.186,1.1,0.678,1.1,0.509,0,.629-0.515.629-1.064,0-1.084-.2-1.393-1.358-2.372-1.29-1.1-1.935-1.753-1.935-3.437,0-1.631.526-3.143,2.681-3.143,2.275,0,2.613,1.581,2.613,2.886v0.653h-2.053V58.234c0-.687-0.119-1.031-0.542-1.031s-0.544.344-.544,1c0,0.687.136,1.031,1.07,1.769,1.663,1.324,2.256,2.079,2.256,3.952,0,1.8-.61,3.281-2.85,3.281-2.155,0-2.784-1.322-2.784-3.024V63.493H955.3Zm6.41-5.98h-1.646V55.571h5.481v1.942H963.9v9.519h-2.189V57.512Zm11.16,1.117v5.327c0,2.266-1.051,3.246-3.037,3.246-1.884,0-2.852-1-2.852-3.23V58.578c0-2.217,1.205-3.179,2.953-3.179S972.871,56.344,972.871,58.63Zm-3.682-.24v5.859c0,0.7.237,1.082,0.729,1.082,0.509,0,.73-0.343.73-1.1V58.372c0-.722-0.186-1.082-0.73-1.082C969.444,57.29,969.189,57.616,969.189,58.39ZM873.558,73.755v3.469c0,1.128-.375,1.908-1.6,1.908-1.135,0-1.531-.77-1.531-1.885V73.81c0-1.257.556-1.9,1.583-1.9C873.012,71.912,873.558,72.53,873.558,73.755Zm-2.185-.042v3.62c0,0.607.182,0.911,0.621,0.911,0.418,0,.6-0.282.6-0.934V73.691c0-.607-0.192-0.89-0.6-0.89S871.373,73.051,871.373,73.712Zm3.932,5.332V73.126a4.975,4.975,0,0,1-.738.109V72.487a1.683,1.683,0,0,0,1.006-.531h0.7v7.089h-0.964Zm4.337-1.659V76.65a1.376,1.376,0,0,1,.706-1.377,1.369,1.369,0,0,1-.6-1.343V73.592a1.433,1.433,0,0,1,1.52-1.668,1.4,1.4,0,0,1,1.456,1.679v0.3a1.308,1.308,0,0,1-.61,1.356,1.345,1.345,0,0,1,.7,1.387v0.673c0,1.3-.568,1.809-1.6,1.809A1.465,1.465,0,0,1,879.642,77.386Zm2.216,0.055V76.53c0-.607-0.225-0.833-0.631-0.833s-0.633.27-.633,0.833v0.9a0.694,0.694,0,0,0,.633.867C881.687,78.3,881.858,78.005,881.858,77.44Zm-1.2-3.913V74.1a0.632,0.632,0,0,0,.579.77c0.375,0,.566-0.238.566-0.791V73.527c0-.443-0.106-0.78-0.566-0.78A0.624,0.624,0,0,0,880.658,73.527Zm6.524,0.228v3.469c0,1.128-.375,1.908-1.6,1.908-1.135,0-1.531-.77-1.531-1.885V73.81c0-1.257.556-1.9,1.583-1.9C886.636,71.912,887.182,72.53,887.182,73.755ZM885,73.712v3.62c0,0.607.181,0.911,0.621,0.911,0.418,0,.6-0.282.6-0.934V73.691c0-.607-0.192-0.89-0.6-0.89S885,73.051,885,73.712Zm6.555,0.042v3.469c0,1.128-.375,1.908-1.6,1.908-1.135,0-1.531-.77-1.531-1.885V73.81c0-1.257.556-1.9,1.583-1.9C891.006,71.912,891.552,72.53,891.552,73.755Zm-2.184-.042v3.62c0,0.607.181,0.911,0.62,0.911,0.419,0,.6-0.282.6-0.934V73.691c0-.607-0.192-0.89-0.6-0.89S889.368,73.051,889.368,73.712Zm8.491,3.207v0.261c0,0.867-.15,1.961-1.572,1.961-1.285,0-1.543-.856-1.543-1.94V73.539c0-1.139.5-1.832,1.564-1.832,1.274,0,1.52.877,1.52,1.864v0.3h-0.964V73.464c0-.521-0.106-0.879-0.567-0.879-0.439,0-.568.337-0.568,0.889v3.8c0,0.576.118,0.987,0.589,0.987s0.568-.39.568-0.987V76.92h0.973Zm3.76-1.267h-1.584v2.5h1.809l-0.118.89h-2.655V71.8h2.634v0.9h-1.67v2.058h1.584v0.89ZM902.95,71.8h1.412a1.463,1.463,0,0,1,1.67,1.712V73.81c0,1.063-.4,1.4-0.727,1.518,0.437,0.194.662,0.508,0.662,1.484a20.739,20.739,0,0,0,.065,2.233h-0.921a15.916,15.916,0,0,1-.075-2.167c0-.9-0.129-1.128-0.791-1.128h-0.333v3.3H902.95V71.8Zm0.962,3.133h0.343c0.621,0,.825-0.293.825-1.073V73.582c0-.607-0.15-0.964-0.814-0.964h-0.354v2.319Zm4.1-3.133,0.416,3.068c0.14,1,.321,2.113.385,2.905h0.011c0.064-.759.258-1.876,0.375-2.874l0.418-3.1h1.017l-1.231,7.24h-1.179l-1.251-7.24h1.039Zm6.253,3.848h-1.585v2.5h1.81l-0.119.89H911.72V71.8h2.634v0.9h-1.67v2.058h1.585v0.89Zm1.18,2.754,2.055-5.7H915.62V71.8h2.932v0.748l-2,5.6h2.055l-0.129.89h-3.028V78.406Zm5.322-1.453-0.289,2.092h-0.975l1.167-7.24h1.359l1.21,7.24h-1.006l-0.32-2.092h-1.146Zm1.027-.9c-0.192-1.377-.364-2.579-0.439-3.338h-0.032c-0.031.584-.266,2.167-0.428,3.338h0.9Zm-47.555,6.57v3.468c0,1.128-.375,1.908-1.6,1.908-1.135,0-1.531-.77-1.531-1.885V82.677c0-1.257.556-1.9,1.583-1.9C873.7,80.78,874.243,81.4,874.243,82.623Zm-2.185-.042V86.2c0,0.607.182,0.911,0.621,0.911,0.419,0,.6-0.282.6-0.934V82.559c0-.607-0.192-0.89-0.6-0.89S872.058,81.918,872.058,82.58Zm3.932,5.332V81.994a4.962,4.962,0,0,1-.738.109V81.355a1.685,1.685,0,0,0,1.006-.531h0.7v7.088H875.99Zm4.337-1.659V85.517a1.376,1.376,0,0,1,.706-1.377,1.369,1.369,0,0,1-.6-1.343V82.46a1.432,1.432,0,0,1,1.52-1.668,1.4,1.4,0,0,1,1.456,1.679v0.3a1.308,1.308,0,0,1-.61,1.356,1.344,1.344,0,0,1,.7,1.387V86.19c0,1.3-.568,1.809-1.6,1.809A1.465,1.465,0,0,1,880.327,86.254Zm2.216,0.055V85.4c0-.607-0.225-0.833-0.631-0.833s-0.633.27-.633,0.833v0.9a0.694,0.694,0,0,0,.633.867C882.372,87.164,882.543,86.873,882.543,86.308Zm-1.2-3.913V82.97a0.632,0.632,0,0,0,.579.77c0.375,0,.567-0.238.567-0.791V82.395c0-.443-0.107-0.78-0.567-0.78A0.624,0.624,0,0,0,881.343,82.395Zm6.524,0.228v3.468c0,1.128-.375,1.908-1.6,1.908-1.134,0-1.53-.77-1.53-1.885V82.677c0-1.257.556-1.9,1.583-1.9C887.321,80.78,887.867,81.4,887.867,82.623Zm-2.185-.042V86.2c0,0.607.182,0.911,0.621,0.911,0.418,0,.6-0.282.6-0.934V82.559c0-.607-0.192-0.89-0.6-0.89S885.682,81.918,885.682,82.58Zm6.555,0.042v3.468c0,1.128-.375,1.908-1.595,1.908-1.135,0-1.531-.77-1.531-1.885V82.677c0-1.257.557-1.9,1.583-1.9C891.691,80.78,892.237,81.4,892.237,82.623Zm-2.184-.042V86.2c0,0.607.181,0.911,0.62,0.911,0.419,0,.6-0.282.6-0.934V82.559c0-.607-0.192-0.89-0.6-0.89S890.053,81.918,890.053,82.58Zm5.205,5.332v-0.12a5.456,5.456,0,0,1,1.285-3.207,2.8,2.8,0,0,0,.75-1.9c0-.77-0.1-1.094-0.535-1.094-0.407,0-.569.314-0.569,0.9V82.84H895.3V82.46a1.431,1.431,0,0,1,1.5-1.68c1.145,0,1.456.77,1.456,1.843a3.464,3.464,0,0,1-.9,2.374,4.933,4.933,0,0,0-1.028,2.081h2.065l-0.127.835h-3.009Zm4.23-5.278V82.428a1.4,1.4,0,0,1,1.455-1.649c1.06,0,1.414.683,1.414,1.649V82.7a1.266,1.266,0,0,1-.664,1.356v0.011a1.28,1.28,0,0,1,.835,1.431V86.07c0,1.128-.342,1.94-1.6,1.94a1.406,1.406,0,0,1-1.541-1.636V86.156h0.889v0.207a0.693,0.693,0,0,0,.652.846c0.493,0,.643-0.38.643-1.008V85.507c0-.738-0.258-1-0.858-1h-0.287V83.675h0.287c0.514,0,.719-0.207.719-0.877V82.418c0-.466-0.086-0.824-0.536-0.824s-0.545.358-.545,0.78v0.261h-0.868Zm6.95-1.767V81.6a18.7,18.7,0,0,0-1.776,6.308h-0.986a18.649,18.649,0,0,1,1.787-6.188H903.42V80.868h3.018Zm1,5.385V85.517a1.376,1.376,0,0,1,.706-1.377,1.369,1.369,0,0,1-.6-1.343V82.46a1.433,1.433,0,0,1,1.521-1.668,1.4,1.4,0,0,1,1.455,1.679v0.3a1.308,1.308,0,0,1-.61,1.356,1.343,1.343,0,0,1,.7,1.387V86.19c0,1.3-.568,1.809-1.6,1.809A1.465,1.465,0,0,1,907.435,86.254Zm2.216,0.055V85.4c0-.607-0.225-0.833-0.631-0.833s-0.633.27-.633,0.833v0.9a0.694,0.694,0,0,0,.633.867C909.48,87.164,909.651,86.873,909.651,86.308Zm-1.2-3.913V82.97a0.631,0.631,0,0,0,.578.77c0.375,0,.567-0.238.567-0.791V82.395c0-.443-0.107-0.78-0.567-0.78A0.624,0.624,0,0,0,908.452,82.395Zm3.395,0.24V82.428A1.4,1.4,0,0,1,913.3,80.78c1.06,0,1.414.683,1.414,1.649V82.7a1.266,1.266,0,0,1-.664,1.356v0.011a1.28,1.28,0,0,1,.835,1.431V86.07c0,1.128-.342,1.94-1.6,1.94a1.406,1.406,0,0,1-1.541-1.636V86.156h0.889v0.207a0.692,0.692,0,0,0,.652.846c0.493,0,.643-0.38.643-1.008V85.507c0-.738-0.258-1-0.858-1H912.79V83.675h0.288c0.514,0,.718-0.207.718-0.877V82.418c0-.466-0.085-0.824-0.535-0.824s-0.546.358-.546,0.78v0.261h-0.868Zm5.12,3.694v0.109c0,0.477.171,0.748,0.546,0.748,0.45,0,.579-0.327.579-1.345V84.748a0.9,0.9,0,0,1-.9.466c-0.889,0-1.241-.672-1.241-1.691V82.536A1.5,1.5,0,0,1,917.5,80.78c1.028,0,1.53.618,1.53,1.811V85.6c0,1.28-.117,2.4-1.53,2.4a1.389,1.389,0,0,1-1.487-1.626V86.329h0.951Zm-0.064-3.9v1.105c0,0.466.108,0.846,0.579,0.846s0.61-.422.61-1.084V82.439c0-.563-0.161-0.856-0.589-0.856S916.9,81.853,916.9,82.428Zm3.192,5.484v-0.12a5.45,5.45,0,0,1,1.285-3.207,2.8,2.8,0,0,0,.749-1.9c0-.77-0.1-1.094-0.535-1.094-0.406,0-.568.314-0.568,0.9V82.84h-0.888V82.46a1.431,1.431,0,0,1,1.5-1.68c1.147,0,1.457.77,1.457,1.843a3.468,3.468,0,0,1-.9,2.374,4.913,4.913,0,0,0-1.029,2.081h2.066l-0.127.835H920.1ZM941.884,71.72l-0.118,1.16,0.878-.672,0.386,0.618L942,73.3l0.985,0.466-0.364.629-0.856-.694,0.129,1.181h-0.729L941.3,73.7l-0.889.694-0.364-.651,1-.443-0.973-.455,0.375-.641,0.845,0.672-0.118-1.16h0.718Zm5.246,5.115V77.1c0,0.867-.15,1.961-1.573,1.961-1.284,0-1.541-.856-1.541-1.94V73.455c0-1.139.5-1.832,1.562-1.832,1.275,0,1.52.877,1.52,1.864v0.3h-0.964V73.379c0-.521-0.106-0.879-0.566-0.879-0.439,0-.568.337-0.568,0.89v3.8c0,0.575.118,0.987,0.589,0.987s0.568-.39.568-0.987V76.835h0.973Zm3.76-1.267h-1.585v2.5h1.81L951,78.96h-2.655V71.72h2.634v0.9h-1.67v2.058h1.585v0.89Zm1.33-3.848h1.412a1.463,1.463,0,0,1,1.67,1.712v0.293c0,1.063-.395,1.4-0.727,1.518,0.438,0.194.663,0.508,0.663,1.484a20.755,20.755,0,0,0,.064,2.233h-0.92a15.915,15.915,0,0,1-.075-2.167c0-.9-0.129-1.128-0.792-1.128h-0.332v3.3H952.22V71.72Zm0.963,3.133h0.343c0.621,0,.825-0.293.825-1.073V73.5c0-.607-0.15-0.964-0.815-0.964h-0.353v2.319Zm4.1-3.133,0.417,3.068c0.139,1,.321,2.113.385,2.905H958.1c0.064-.759.258-1.876,0.374-2.873l0.419-3.1h1.016l-1.231,7.24H957.5l-1.252-7.24h1.039Zm6.253,3.848h-1.584v2.5h1.809l-0.118.89h-2.655V71.72h2.634v0.9h-1.67v2.058h1.584v0.89Zm1.181,2.754,2.055-5.7H964.89v-0.9h2.933v0.749l-2,5.6h2.056l-0.129.89H964.72V78.321Zm5.322-1.453-0.29,2.092h-0.974l1.166-7.24h1.36l1.21,7.24h-1.006l-0.321-2.092h-1.145Zm1.027-.9c-0.192-1.377-.365-2.579-0.44-3.338H970.6c-0.031.584-.267,2.168-0.429,3.338h0.9Zm-28.5,4.792-0.119,1.16,0.879-.673,0.385,0.618-1.028.478,0.985,0.466-0.365.628-0.856-.694,0.13,1.181h-0.729l0.129-1.181-0.889.694-0.365-.651,1-.443-0.973-.456,0.375-.641,0.845,0.673-0.118-1.16h0.718Zm1.96,7.24v-0.12a5.449,5.449,0,0,1,1.284-3.207,2.8,2.8,0,0,0,.75-1.9c0-.769-0.1-1.094-0.535-1.094-0.406,0-.568.314-0.568,0.9v0.346h-0.888V82.549a1.431,1.431,0,0,1,1.5-1.68c1.146,0,1.456.769,1.456,1.843a3.468,3.468,0,0,1-.9,2.374,4.923,4.923,0,0,0-1.029,2.081h2.066L947.539,88h-3.008Zm4.23-5.278V82.517a1.4,1.4,0,0,1,1.456-1.648c1.06,0,1.414.683,1.414,1.648v0.27a1.266,1.266,0,0,1-.664,1.356v0.011a1.28,1.28,0,0,1,.835,1.431v0.574c0,1.128-.342,1.94-1.6,1.94a1.406,1.406,0,0,1-1.541-1.636V86.245h0.889v0.206a0.693,0.693,0,0,0,.652.846c0.493,0,.643-0.38.643-1.008V85.6c0-.738-0.258-1-0.858-1h-0.287V83.763h0.287c0.514,0,.718-0.206.718-0.877V82.506c0-.466-0.085-0.824-0.535-0.824s-0.545.358-.545,0.78v0.261h-0.869Zm6.949-1.767v0.736A18.7,18.7,0,0,0,953.934,88h-0.985a18.626,18.626,0,0,1,1.787-6.189h-2.043V80.956h3.017Zm1,5.385V85.606a1.376,1.376,0,0,1,.706-1.377,1.369,1.369,0,0,1-.6-1.343V82.549a1.433,1.433,0,0,1,1.521-1.668,1.4,1.4,0,0,1,1.455,1.679v0.3a1.308,1.308,0,0,1-.61,1.356,1.343,1.343,0,0,1,.7,1.387v0.672c0,1.3-.568,1.809-1.6,1.809A1.465,1.465,0,0,1,956.709,86.342Zm2.216,0.055V85.486c0-.607-0.225-0.833-0.631-0.833s-0.633.27-.633,0.833v0.9a0.694,0.694,0,0,0,.633.867C958.754,87.253,958.925,86.961,958.925,86.4Zm-1.2-3.913v0.576a0.631,0.631,0,0,0,.578.77c0.375,0,.567-0.238.567-0.791V82.483c0-.443-0.107-0.78-0.567-0.78A0.624,0.624,0,0,0,957.726,82.483Zm3.395,0.24V82.517a1.4,1.4,0,0,1,1.456-1.648c1.06,0,1.414.683,1.414,1.648v0.27a1.266,1.266,0,0,1-.664,1.356v0.011a1.28,1.28,0,0,1,.835,1.431v0.574c0,1.128-.342,1.94-1.6,1.94a1.406,1.406,0,0,1-1.541-1.636V86.245h0.889v0.206a0.693,0.693,0,0,0,.652.846c0.493,0,.643-0.38.643-1.008V85.6c0-.738-0.258-1-0.858-1h-0.287V83.763h0.287c0.515,0,.718-0.206.718-0.877V82.506c0-.466-0.085-0.824-0.535-0.824s-0.545.358-.545,0.78v0.261h-0.869Zm5.12,3.694v0.109c0,0.477.171,0.748,0.546,0.748,0.45,0,.579-0.327.579-1.345V84.836a0.9,0.9,0,0,1-.9.466c-0.889,0-1.241-.673-1.241-1.691V82.624a1.5,1.5,0,0,1,1.552-1.756c1.028,0,1.53.618,1.53,1.811v3.013c0,1.28-.117,2.4-1.53,2.4a1.39,1.39,0,0,1-1.489-1.626V86.418h0.953Zm-0.064-3.9v1.1c0,0.466.108,0.846,0.579,0.846s0.61-.422.61-1.084V82.527c0-.563-0.161-0.856-0.589-0.856S966.177,81.941,966.177,82.517ZM969.369,88v-0.12a5.45,5.45,0,0,1,1.285-3.207,2.8,2.8,0,0,0,.749-1.9c0-.769-0.1-1.094-0.535-1.094-0.406,0-.568.314-0.568,0.9v0.346h-0.887V82.549a1.431,1.431,0,0,1,1.5-1.68c1.145,0,1.455.769,1.455,1.843a3.468,3.468,0,0,1-.9,2.374,4.935,4.935,0,0,0-1.029,2.081h2.066L972.378,88h-3.009ZM851.775,73.379A4.623,4.623,0,0,1,853.6,70.61a1.091,1.091,0,0,1,1.3.2c0.781,0.593,2.865,2.505,2.865,2.505a1.33,1.33,0,0,1,.39,1.385,14.71,14.71,0,0,1-1.627,2.044c-0.456,1.582,4.883,6.923,6.381,6.461a11.453,11.453,0,0,1,2.018-1.582,1.316,1.316,0,0,1,1.368.33s1.888,2.176,2.474,2.9a1.236,1.236,0,0,1,.2,1.385,4.36,4.36,0,0,1-2.734,1.78C860.566,89,850.8,79.115,851.775,73.379Zm79.282-2.887a1.178,1.178,0,0,0-1.173,1.188V86.723a1.178,1.178,0,0,0,1.173,1.188H937.7a1.178,1.178,0,0,0,1.173-1.188V71.679a1.178,1.178,0,0,0-1.173-1.188h-6.647Zm2.151,0.792h2.346a0.2,0.2,0,0,1,0,.4h-2.346A0.2,0.2,0,0,1,933.208,71.284Zm-2.542,1.188H938.1V85.14h-7.429V72.471Zm3.715,13.262a0.792,0.792,0,1,1-.782.792A0.787,0.787,0,0,1,934.381,85.734Z" transform="translate(-851.438 -53.125)"/>
</svg>
