<?xml version="1.0" encoding="utf-8"?>
<!-- Generator: Adobe Illustrator 23.0.3, SVG Export Plug-In . SVG Version: 6.00 Build 0)  -->
<svg version="1.1" id="Logo_FIXED" xmlns="http://www.w3.org/2000/svg" xmlns:xlink="http://www.w3.org/1999/xlink" x="0px" y="0px"
	 viewBox="0 0 24 24" style="enable-background:new 0 0 24 24;" xml:space="preserve">
<style type="text/css">
	.st1{fill:none;}
	.st0{fill:#FFFFFF;}
</style>
<title>Twitter</title>
<rect x="-188" y="-188" class="st1" width="400" height="400"/>
<path class="st0" d="M7.5,21.8c9.1,0,14-7.5,14-14c0-0.2,0-0.4,0-0.6c1-0.7,1.8-1.6,2.5-2.5c-0.9,0.4-1.9,0.7-2.8,0.8
	c1-0.6,1.8-1.6,2.2-2.7c-1,0.6-2,1-3.1,1.2c-1.9-2-5-2.1-7-0.2c-1.3,1.2-1.8,3-1.4,4.7c-4-0.2-7.6-2.1-10.1-5.1
	C0.4,5.4,1,8.3,3.2,9.7C2.4,9.7,1.6,9.5,1,9.1c0,0,0,0,0,0.1c0,2.3,1.7,4.4,4,4.8c-0.7,0.2-1.5,0.2-2.2,0.1c0.6,2,2.5,3.4,4.6,3.4
	c-1.7,1.4-3.9,2.1-6.1,2.1c-0.4,0-0.8,0-1.2-0.1C2.3,21,4.9,21.8,7.5,21.8"/>
</svg>
