<?xml version="1.0" encoding="utf-8"?>
<!-- Generator: Adobe Illustrator 23.0.3, SVG Export Plug-In . SVG Version: 6.00 Build 0)  -->
<svg version="1.1" id="Layer_1" xmlns="http://www.w3.org/2000/svg" xmlns:xlink="http://www.w3.org/1999/xlink" x="0px" y="0px"
	 viewBox="0 0 300 80" style="enable-background:new 0 0 300 80;" xml:space="preserve">
<style type="text/css">
	.st0{fill-rule:evenodd;clip-rule:evenodd;fill:#FFFFFF;}
</style>
<path class="st0" d="M21.8,37.5c0-0.2,0-0.4,0-0.6c0-3.8,2.8-6.9,6.2-6.9s6.2,3.1,6.2,6.9c0,0.2,0,0.4,0,0.6h0
	C34.2,41.3,28,50,28,50S21.8,41.3,21.8,37.5L21.8,37.5z M28,38.8c1.4,0,2.5-1.1,2.5-2.5s-1.1-2.5-2.5-2.5s-2.5,1.1-2.5,2.5
	S26.6,38.8,28,38.8z"/>
<polygon class="st0" points="262,43.5 266,36.5 258,36.5 "/>
</svg>
